<?xml version="1.0" encoding="UTF-8" standalone="no"?>
<!-- Created with Inkscape (http://www.inkscape.org/) -->

<svg
   xmlns:dc="http://purl.org/dc/elements/1.1/"
   xmlns:cc="http://creativecommons.org/ns#"
   xmlns:rdf="http://www.w3.org/1999/02/22-rdf-syntax-ns#"
   xmlns:svg="http://www.w3.org/2000/svg"
   xmlns="http://www.w3.org/2000/svg"
   xmlns:sodipodi="http://sodipodi.sourceforge.net/DTD/sodipodi-0.dtd"
   xmlns:inkscape="http://www.inkscape.org/namespaces/inkscape"
   width="13.3mm"
   height="19.200001mm"
   viewBox="0 0 13.3 19.200001"
   version="1.1"
   id="svg8"
   inkscape:version="0.92.4 (5da689c313, 2019-01-14)"
   sodipodi:docname="ESP32-ttgo-micro32-2_pcbview.svg"
   inkscape:label="copper1">
  <defs
     id="defs2" />
  <sodipodi:namedview
     id="base"
     pagecolor="#ffffff"
     bordercolor="#666666"
     borderopacity="1.0"
     inkscape:pageopacity="0.0"
     inkscape:pageshadow="2"
     inkscape:zoom="5.6568543"
     inkscape:cx="22.409745"
     inkscape:cy="32.617908"
     inkscape:document-units="mm"
     inkscape:current-layer="svg8"
     showgrid="false"
     inkscape:window-width="1366"
     inkscape:window-height="705"
     inkscape:window-x="-8"
     inkscape:window-y="-8"
     inkscape:window-maximized="1" />
  <metadata
     id="metadata5">
    <rdf:RDF>
      <cc:Work
         rdf:about="">
        <dc:format>image/svg+xml</dc:format>
        <dc:type
           rdf:resource="http://purl.org/dc/dcmitype/StillImage" />
        <dc:title></dc:title>
      </cc:Work>
    </rdf:RDF>
  </metadata>
  <g
     id="silkscreen"
     inkscape:label="#silkscreen"
     style="stroke:#000000;stroke-opacity:1;stroke-width:0.05;stroke-miterlimit:4;stroke-dasharray:none">
    <path
       inkscape:connector-curvature="0"
       id="rect3713"
       d="M 0.05,-0.04986053 V 3.290504 A 0.24999993,0.24999993 0 0 1 0.300114,3.5406178 0.24999993,0.24999993 0 0 1 0.05,3.7902151 V 4.290443 A 0.24999993,0.24999993 0 0 1 0.300114,4.5405568 0.24999993,0.24999993 0 0 1 0.05,4.7901541 V 5.290382 A 0.24999994,0.24999994 0 0 1 0.300114,5.5404958 0.24999994,0.24999994 0 0 1 0.05,5.7906098 V 6.290321 A 0.24999994,0.24999994 0 0 1 0.300114,6.5404348 0.24999994,0.24999994 0 0 1 0.05,6.7905488 V 7.29026 A 0.24999993,0.24999993 0 0 1 0.300114,7.5403738 0.24999993,0.24999993 0 0 1 0.05,7.7904876 V 8.2901987 A 0.24999993,0.24999993 0 0 1 0.300114,8.5403128 0.24999993,0.24999993 0 0 1 0.05,8.7904266 V 9.2901377 A 0.24999992,0.24999992 0 0 1 0.300114,9.5402518 0.24999992,0.24999992 0 0 1 0.05,9.7903656 V 10.290594 A 0.24999992,0.24999992 0 0 1 0.300114,10.540191 0.24999992,0.24999992 0 0 1 0.05,10.790305 v 0.500228 A 0.24999992,0.24999992 0 0 1 0.300114,11.54013 0.24999992,0.24999992 0 0 1 0.05,11.790244 v 0.500228 A 0.24999992,0.24999992 0 0 1 0.300114,12.540586 0.24999992,0.24999992 0 0 1 0.05,12.790183 v 0.500228 A 0.24999991,0.24999991 0 0 1 0.300114,13.540525 0.24999991,0.24999991 0 0 1 0.05,13.790122 V 14.29035 A 0.24999991,0.24999991 0 0 1 0.300114,14.540464 0.24999991,0.24999991 0 0 1 0.05,14.790578 v 0.499711 A 0.24999991,0.24999991 0 0 1 0.300114,15.540403 0.24999991,0.24999991 0 0 1 0.05,15.790517 v 0.499711 A 0.2499999,0.2499999 0 0 1 0.300114,16.540342 0.2499999,0.2499999 0 0 1 0.05,16.790456 v 0.499711 A 0.2499999,0.2499999 0 0 1 0.300114,17.540281 0.2499999,0.2499999 0 0 1 0.05,17.790395 v 1.359606 h 2.902665 a 0.24999996,0.24999996 0 0 1 0.249597,-0.250113 0.24999996,0.24999996 0 0 1 0.250114,0.250113 h 0.500228 a 0.24999996,0.24999996 0 0 1 0.249597,-0.250113 0.24999996,0.24999996 0 0 1 0.250114,0.250113 h 0.500228 a 0.24999997,0.24999997 0 0 1 0.250114,-0.250113 0.24999997,0.24999997 0 0 1 0.249597,0.250113 h 0.500228 a 0.24999997,0.24999997 0 0 1 0.250114,-0.250113 0.24999997,0.24999997 0 0 1 0.250114,0.250113 h 0.499711 a 0.24999997,0.24999997 0 0 1 0.250114,-0.250113 0.24999997,0.24999997 0 0 1 0.250114,0.250113 H 7.95236 a 0.24999997,0.24999997 0 0 1 0.250114,-0.250113 0.24999997,0.24999997 0 0 1 0.250114,0.250113 h 0.499711 a 0.24999998,0.24999998 0 0 1 0.250114,-0.250113 0.24999998,0.24999998 0 0 1 0.250114,0.250113 h 0.4997114 a 0.24999998,0.24999998 0 0 1 0.2501136,-0.250113 0.24999998,0.24999998 0 0 1 0.250114,0.250113 h 2.897497 v -1.149283 a 0.24999994,0.24999994 0 0 1 -0.250114,-0.250114 0.24999994,0.24999994 0 0 1 0.250114,-0.250114 v -0.500228 a 0.24999994,0.24999994 0 0 1 -0.250114,-0.249597 0.24999994,0.24999994 0 0 1 0.250114,-0.250114 v -0.500228 a 0.24999995,0.24999995 0 0 1 -0.250114,-0.249597 0.24999995,0.24999995 0 0 1 0.250114,-0.250114 v -0.500228 a 0.24999995,0.24999995 0 0 1 -0.250114,-0.250114 0.24999995,0.24999995 0 0 1 0.250114,-0.249597 v -0.500228 a 0.24999995,0.24999995 0 0 1 -0.250114,-0.250114 0.24999995,0.24999995 0 0 1 0.250114,-0.249597 v -0.500228 a 0.24999996,0.24999996 0 0 1 -0.250114,-0.250114 0.24999996,0.24999996 0 0 1 0.250114,-0.250114 v -0.499711 a 0.24999996,0.24999996 0 0 1 -0.250114,-0.250114 0.24999996,0.24999996 0 0 1 0.250114,-0.250114 V 11.000628 A 0.24999998,0.24999998 0 0 1 13.099849,10.750514 0.24999998,0.24999998 0 0 1 13.349963,10.5004 V 10.000688 A 0.24999998,0.24999998 0 0 1 13.099849,9.7505749 0.24999998,0.24999998 0 0 1 13.349963,9.5004608 V 9.0007497 A 0.24999999,0.24999999 0 0 1 13.099849,8.7506359 0.24999999,0.24999999 0 0 1 13.349963,8.5005218 V 8.000294 A 0.24999999,0.24999999 0 0 1 13.099849,7.7506969 0.24999999,0.24999999 0 0 1 13.349963,7.5005828 V 7.000355 A 0.24999999,0.24999999 0 0 1 13.099849,6.7507579 0.24999999,0.24999999 0 0 1 13.349963,6.5006438 V 6.0004162 A 0.24999999,0.24999999 0 0 1 13.099849,5.7503022 0.24999999,0.24999999 0 0 1 13.349963,5.5007051 V 5.0004772 A 0.25,0.25 0 0 1 13.099849,4.7503632 0.25,0.25 0 0 1 13.349963,4.5007661 V 4.0005382 a 0.25,0.25 0 0 1 -0.250114,-0.250114 0.25,0.25 0 0 1 0.250114,-0.2495971 v -3.55068763 z"
       style="display:inline;fill:none;stroke:#000000;stroke-width:0.05;stroke-miterlimit:4;stroke-dasharray:none;stroke-opacity:1" />
  </g>
  <g
     id="copper1"
     inkscape:label="#copper1">
    <g
       id="copper0"
       style="display:inline"
       transform="translate(0.05,-277.84987)"
       inkscape:label="#copper0">
      <path
         style="fill:#f7bd13;fill-opacity:1;stroke:none;stroke-width:0.01474101;stroke-miterlimit:4;stroke-dasharray:none;stroke-opacity:1;paint-order:stroke fill markers"
         d="m 0,295.07523 v 0.0651 A 0.25001524,0.25 0 0 1 0.2501292,295.38994 0.25001524,0.25 0 0 1 0,295.64006 V 295.7 h 0.99999997 v -0.62477 z"
         id="rect3869"
         inkscape:connector-curvature="0" />
      <path
         style="fill:#f7bd13;fill-opacity:1;stroke:none;stroke-width:0.01474101;stroke-miterlimit:4;stroke-dasharray:none;stroke-opacity:1;paint-order:stroke fill markers"
         d="m 0,294.07527 v 0.0651 A 0.25001524,0.25 0 0 1 0.2501292,294.38998 0.25001524,0.25 0 0 1 0,294.6401 V 294.7 h 0.99999998 v -0.62473 z"
         id="rect3869-5"
         inkscape:connector-curvature="0" />
      <path
         style="fill:#f7bd13;fill-opacity:1;stroke:none;stroke-width:0.01474101;stroke-miterlimit:4;stroke-dasharray:none;stroke-opacity:1;paint-order:stroke fill markers"
         d="m 0,293.07527 v 0.0651 A 0.25001524,0.25 0 0 1 0.2501292,293.38998 0.25001524,0.25 0 0 1 0,293.6401 V 293.7 h 0.99999998 v -0.62473 z"
         id="rect3869-9"
         inkscape:connector-curvature="0" />
      <path
         style="fill:#f7bd13;fill-opacity:1;stroke:none;stroke-width:0.01474101;stroke-miterlimit:4;stroke-dasharray:none;stroke-opacity:1;paint-order:stroke fill markers"
         d="m 0,292.07527 v 0.0651 A 0.25001524,0.25 0 0 1 0.2501292,292.38998 0.25001524,0.25 0 0 1 0,292.6401 V 292.7 h 0.99999998 v -0.62473 z"
         id="rect3869-9-1"
         inkscape:connector-curvature="0" />
      <path
         style="fill:#f7bd13;fill-opacity:1;stroke:none;stroke-width:0.01474101;stroke-miterlimit:4;stroke-dasharray:none;stroke-opacity:1;paint-order:stroke fill markers"
         d="m 0,291.07527 v 0.0651 A 0.25001524,0.25 0 0 1 0.2501292,291.38998 0.25001524,0.25 0 0 1 0,291.6401 V 291.7 h 0.99999998 v -0.62473 z"
         id="rect3869-9-3"
         inkscape:connector-curvature="0" />
      <path
         style="fill:#f7bd13;fill-opacity:1;stroke:none;stroke-width:0.01474101;stroke-miterlimit:4;stroke-dasharray:none;stroke-opacity:1;paint-order:stroke fill markers"
         d="m 0,290.07527 v 0.0651 A 0.25001524,0.25 0 0 1 0.2501292,290.38998 0.25001524,0.25 0 0 1 0,290.6401 V 290.7 h 0.99999998 v -0.62473 z"
         id="rect3869-9-4"
         inkscape:connector-curvature="0" />
      <path
         style="fill:#f7bd13;fill-opacity:1;stroke:none;stroke-width:0.01474101;stroke-miterlimit:4;stroke-dasharray:none;stroke-opacity:1;paint-order:stroke fill markers"
         d="m 0,289.07527 v 0.0651 A 0.25001524,0.25 0 0 1 0.2501292,289.38998 0.25001524,0.25 0 0 1 0,289.6401 V 289.7 h 0.99999998 v -0.62473 z"
         id="rect3869-9-39"
         inkscape:connector-curvature="0" />
      <path
         style="fill:#f7bd13;fill-opacity:1;stroke:none;stroke-width:0.01474101;stroke-miterlimit:4;stroke-dasharray:none;stroke-opacity:1;paint-order:stroke fill markers"
         d="m 0,288.07527 v 0.0651 A 0.25001524,0.25 0 0 1 0.2501292,288.38998 0.25001524,0.25 0 0 1 0,288.6401 V 288.7 h 0.99999998 v -0.62473 z"
         id="rect3869-9-39-6"
         inkscape:connector-curvature="0" />
      <path
         style="fill:#f7bd13;fill-opacity:1;stroke:none;stroke-width:0.01474101;stroke-miterlimit:4;stroke-dasharray:none;stroke-opacity:1;paint-order:stroke fill markers"
         d="m 0,287.07527 v 0.0651 A 0.25001524,0.25 0 0 1 0.25012918,287.38998 0.25001524,0.25 0 0 1 0,287.6401 V 287.7 h 0.99999997 v -0.62473 z"
         id="rect3869-9-39-6-4"
         inkscape:connector-curvature="0" />
      <path
         style="fill:#f7bd13;fill-opacity:1;stroke:none;stroke-width:0.01474101;stroke-miterlimit:4;stroke-dasharray:none;stroke-opacity:1;paint-order:stroke fill markers"
         d="m 0,286.07527 v 0.0651 A 0.25001524,0.25 0 0 1 0.2501292,286.38998 0.25001524,0.25 0 0 1 0,286.6401 V 286.7 h 0.99999998 v -0.62473 z"
         id="rect3869-9-39-6-4-3"
         inkscape:connector-curvature="0" />
      <path
         style="fill:#f7bd13;fill-opacity:1;stroke:none;stroke-width:0.01474101;stroke-miterlimit:4;stroke-dasharray:none;stroke-opacity:1;paint-order:stroke fill markers"
         d="m 0,285.07527 v 0.0651 A 0.25001524,0.25 0 0 1 0.25012921,285.38998 0.25001524,0.25 0 0 1 0,285.6401 V 285.7 h 1 v -0.62473 z"
         id="rect3869-9-39-6-4-3-9"
         inkscape:connector-curvature="0" />
      <path
         style="fill:#f7bd13;fill-opacity:1;stroke:none;stroke-width:0.01474101;stroke-miterlimit:4;stroke-dasharray:none;stroke-opacity:1;paint-order:stroke fill markers"
         d="m 0,284.07527 v 0.0651 A 0.25001524,0.25 0 0 1 0.2501292,284.38998 0.25001524,0.25 0 0 1 0,284.6401 V 284.7 h 0.99999998 v -0.62473 z"
         id="rect3869-9-39-6-4-3-5"
         inkscape:connector-curvature="0" />
      <path
         style="fill:#f7bd13;fill-opacity:1;stroke:none;stroke-width:0.01474101;stroke-miterlimit:4;stroke-dasharray:none;stroke-opacity:1;paint-order:stroke fill markers"
         d="m 0,283.07527 v 0.0651 A 0.25001524,0.25 0 0 1 0.2501292,283.38998 0.25001524,0.25 0 0 1 0,283.6401 V 283.7 h 0.99999998 v -0.62473 z"
         id="rect3869-9-39-6-4-3-8"
         inkscape:connector-curvature="0" />
      <path
         style="fill:#f7bd13;fill-opacity:1;stroke:none;stroke-width:0.01474101;stroke-miterlimit:4;stroke-dasharray:none;stroke-opacity:1;paint-order:stroke fill markers"
         d="m 0,282.07527 v 0.0651 A 0.25001524,0.25 0 0 1 0.2501292,282.38998 0.25001524,0.25 0 0 1 0,282.6401 V 282.7 h 0.99999998 v -0.62473 z"
         id="rect3869-9-39-6-4-3-8-0"
         inkscape:connector-curvature="0" />
      <path
         style="fill:#f7bd13;fill-opacity:1;stroke:none;stroke-width:0.01474101;stroke-miterlimit:4;stroke-dasharray:none;stroke-opacity:1;paint-order:stroke fill markers"
         d="m 0,281.07527 v 0.0651 A 0.25001524,0.25 0 0 1 0.2501292,281.38998 0.25001524,0.25 0 0 1 0,281.6401 V 281.7 h 0.99999998 v -0.62473 z"
         id="rect3869-9-39-6-4-3-8-5"
         inkscape:connector-curvature="0" />
      <path
         style="fill:#f7bd13;fill-opacity:1;stroke:none;stroke-width:0.01474101;stroke-miterlimit:4;stroke-dasharray:none;stroke-opacity:1;paint-order:stroke fill markers"
         d="m 13.3,281.91534 v -0.0651 A 0.2500152,0.25 0 0 1 13.049871,281.60063 0.2500152,0.25 0 0 1 13.3,281.35051 v -0.0599 h -1 v 0.62477 z"
         id="rect3869-4"
         inkscape:connector-curvature="0" />
      <path
         style="fill:#f7bd13;fill-opacity:1;stroke:none;stroke-width:0.01474101;stroke-miterlimit:4;stroke-dasharray:none;stroke-opacity:1;paint-order:stroke fill markers"
         d="m 13.3,282.9153 v -0.0651 A 0.2500152,0.25 0 0 1 13.049871,282.60059 0.2500152,0.25 0 0 1 13.3,282.35047 v -0.0599 h -1 v 0.62473 z"
         id="rect3869-5-9"
         inkscape:connector-curvature="0" />
      <path
         style="fill:#f7bd13;fill-opacity:1;stroke:none;stroke-width:0.01474101;stroke-miterlimit:4;stroke-dasharray:none;stroke-opacity:1;paint-order:stroke fill markers"
         d="m 13.3,283.9153 v -0.0651 A 0.2500152,0.25 0 0 1 13.049871,283.60059 0.2500152,0.25 0 0 1 13.3,283.35047 v -0.0599 h -1 v 0.62473 z"
         id="rect3869-9-9"
         inkscape:connector-curvature="0" />
      <path
         style="fill:#f7bd13;fill-opacity:1;stroke:none;stroke-width:0.01474101;stroke-miterlimit:4;stroke-dasharray:none;stroke-opacity:1;paint-order:stroke fill markers"
         d="m 13.3,284.9153 v -0.0651 A 0.2500152,0.25 0 0 1 13.049871,284.60059 0.2500152,0.25 0 0 1 13.3,284.35047 v -0.0599 h -1 v 0.62473 z"
         id="rect3869-9-1-6"
         inkscape:connector-curvature="0" />
      <path
         style="fill:#f7bd13;fill-opacity:1;stroke:none;stroke-width:0.01474101;stroke-miterlimit:4;stroke-dasharray:none;stroke-opacity:1;paint-order:stroke fill markers"
         d="m 13.3,285.9153 v -0.0651 A 0.2500152,0.25 0 0 1 13.049871,285.60059 0.2500152,0.25 0 0 1 13.3,285.35047 v -0.0599 h -1 v 0.62473 z"
         id="rect3869-9-3-8"
         inkscape:connector-curvature="0" />
      <path
         style="fill:#f7bd13;fill-opacity:1;stroke:none;stroke-width:0.01474101;stroke-miterlimit:4;stroke-dasharray:none;stroke-opacity:1;paint-order:stroke fill markers"
         d="m 13.3,286.9153 v -0.0651 A 0.2500152,0.25 0 0 1 13.049871,286.60059 0.2500152,0.25 0 0 1 13.3,286.35047 v -0.0599 h -1 v 0.62473 z"
         id="rect3869-9-4-6"
         inkscape:connector-curvature="0" />
      <path
         style="fill:#f7bd13;fill-opacity:1;stroke:none;stroke-width:0.01474101;stroke-miterlimit:4;stroke-dasharray:none;stroke-opacity:1;paint-order:stroke fill markers"
         d="m 13.3,287.9153 v -0.0651 A 0.2500152,0.25 0 0 1 13.049871,287.60059 0.2500152,0.25 0 0 1 13.3,287.35047 v -0.0599 h -1 v 0.62473 z"
         id="rect3869-9-39-5"
         inkscape:connector-curvature="0" />
      <path
         style="fill:#f7bd13;fill-opacity:1;stroke:none;stroke-width:0.01474101;stroke-miterlimit:4;stroke-dasharray:none;stroke-opacity:1;paint-order:stroke fill markers"
         d="m 13.3,288.9153 v -0.0651 A 0.2500152,0.25 0 0 1 13.049871,288.60059 0.2500152,0.25 0 0 1 13.3,288.35047 v -0.0599 h -1 v 0.62473 z"
         id="rect3869-9-39-6-2"
         inkscape:connector-curvature="0" />
      <path
         style="fill:#f7bd13;fill-opacity:1;stroke:none;stroke-width:0.01474101;stroke-miterlimit:4;stroke-dasharray:none;stroke-opacity:1;paint-order:stroke fill markers"
         d="m 13.3,289.9153 v -0.0651 A 0.2500152,0.25 0 0 1 13.049871,289.60059 0.2500152,0.25 0 0 1 13.3,289.35047 v -0.0599 h -1 v 0.62473 z"
         id="rect3869-9-39-6-4-7"
         inkscape:connector-curvature="0" />
      <path
         style="fill:#f7bd13;fill-opacity:1;stroke:none;stroke-width:0.01474101;stroke-miterlimit:4;stroke-dasharray:none;stroke-opacity:1;paint-order:stroke fill markers"
         d="m 13.3,290.9153 v -0.0651 A 0.2500152,0.25 0 0 1 13.049871,290.60059 0.2500152,0.25 0 0 1 13.3,290.35047 v -0.0599 h -1 v 0.62473 z"
         id="rect3869-9-39-6-4-3-85"
         inkscape:connector-curvature="0" />
      <path
         style="fill:#f7bd13;fill-opacity:1;stroke:none;stroke-width:0.01474101;stroke-miterlimit:4;stroke-dasharray:none;stroke-opacity:1;paint-order:stroke fill markers"
         d="m 13.3,291.9153 v -0.0651 A 0.2500152,0.25 0 0 1 13.049871,291.60059 0.2500152,0.25 0 0 1 13.3,291.35047 v -0.0599 h -1 v 0.62473 z"
         id="rect3869-9-39-6-4-3-9-3"
         inkscape:connector-curvature="0" />
      <path
         style="fill:#f7bd13;fill-opacity:1;stroke:none;stroke-width:0.01474101;stroke-miterlimit:4;stroke-dasharray:none;stroke-opacity:1;paint-order:stroke fill markers"
         d="m 13.3,292.9153 v -0.0651 A 0.2500152,0.25 0 0 1 13.049871,292.60059 0.2500152,0.25 0 0 1 13.3,292.35047 v -0.0599 h -1 v 0.62473 z"
         id="rect3869-9-39-6-4-3-5-6"
         inkscape:connector-curvature="0" />
      <path
         style="fill:#f7bd13;fill-opacity:1;stroke:none;stroke-width:0.01474101;stroke-miterlimit:4;stroke-dasharray:none;stroke-opacity:1;paint-order:stroke fill markers"
         d="m 13.3,293.9153 v -0.0651 A 0.2500152,0.25 0 0 1 13.049871,293.60059 0.2500152,0.25 0 0 1 13.3,293.35047 v -0.0599 h -1 v 0.62473 z"
         id="rect3869-9-39-6-4-3-8-3"
         inkscape:connector-curvature="0" />
      <path
         style="fill:#f7bd13;fill-opacity:1;stroke:none;stroke-width:0.01474101;stroke-miterlimit:4;stroke-dasharray:none;stroke-opacity:1;paint-order:stroke fill markers"
         d="m 13.3,294.9153 v -0.0651 A 0.2500152,0.25 0 0 1 13.049871,294.60059 0.2500152,0.25 0 0 1 13.3,294.35047 v -0.0599 h -1 v 0.62473 z"
         id="rect3869-9-39-6-4-3-8-0-6"
         inkscape:connector-curvature="0" />
      <path
         style="fill:#f7bd13;fill-opacity:1;stroke:none;stroke-width:0.01474101;stroke-miterlimit:4;stroke-dasharray:none;stroke-opacity:1;paint-order:stroke fill markers"
         d="m 13.3,295.9153 v -0.0651 A 0.2500152,0.25 0 0 1 13.049871,295.60059 0.2500152,0.25 0 0 1 13.3,295.35047 v -0.0599 h -1 v 0.62473 z"
         id="rect3869-9-39-6-4-3-8-5-1"
         inkscape:connector-curvature="0" />
      <path
         style="fill:#f7bd13;fill-opacity:1;stroke:none;stroke-width:0.01474101;stroke-miterlimit:4;stroke-dasharray:none;stroke-opacity:1;paint-order:stroke fill markers"
         d="m 9.83746,297.00001 h 0.0651 a 0.25,0.2500152 0 0 1 0.24961,-0.25012 0.25,0.2500152 0 0 1 0.25012,0.25012 h 0.0599 v -1 H 9.83742 Z"
         id="rect3869-4-1"
         inkscape:connector-curvature="0" />
      <path
         style="fill:#f7bd13;fill-opacity:1;stroke:none;stroke-width:0.01474101;stroke-miterlimit:4;stroke-dasharray:none;stroke-opacity:1;paint-order:stroke fill markers"
         d="m 8.8375,297.00001 h 0.0651 a 0.25,0.2500152 0 0 1 0.24961,-0.25012 0.25,0.2500152 0 0 1 0.25012,0.25012 h 0.0599 v -1 H 8.8375 Z"
         id="rect3869-5-9-9"
         inkscape:connector-curvature="0" />
      <path
         style="fill:#f7bd13;fill-opacity:1;stroke:none;stroke-width:0.01474101;stroke-miterlimit:4;stroke-dasharray:none;stroke-opacity:1;paint-order:stroke fill markers"
         d="m 7.8375,297.00001 h 0.0651 a 0.25,0.2500152 0 0 1 0.24961,-0.25012 0.25,0.2500152 0 0 1 0.25012,0.25012 h 0.0599 v -1 H 7.8375 Z"
         id="rect3869-9-9-6"
         inkscape:connector-curvature="0" />
      <path
         style="fill:#f7bd13;fill-opacity:1;stroke:none;stroke-width:0.01474101;stroke-miterlimit:4;stroke-dasharray:none;stroke-opacity:1;paint-order:stroke fill markers"
         d="m 6.8375,297.00001 h 0.0651 a 0.25,0.2500152 0 0 1 0.24961,-0.25012 0.25,0.2500152 0 0 1 0.25012,0.25012 h 0.0599 v -1 H 6.8375 Z"
         id="rect3869-9-1-6-5"
         inkscape:connector-curvature="0" />
      <path
         style="fill:#f7bd13;fill-opacity:1;stroke:none;stroke-width:0.01474101;stroke-miterlimit:4;stroke-dasharray:none;stroke-opacity:1;paint-order:stroke fill markers"
         d="m 5.8375,297.00001 h 0.0651 a 0.25,0.2500152 0 0 1 0.24961,-0.25012 0.25,0.2500152 0 0 1 0.25012,0.25012 h 0.0599 v -1 H 5.8375 Z"
         id="rect3869-9-3-8-0"
         inkscape:connector-curvature="0" />
      <path
         style="fill:#f7bd13;fill-opacity:1;stroke:none;stroke-width:0.01474101;stroke-miterlimit:4;stroke-dasharray:none;stroke-opacity:1;paint-order:stroke fill markers"
         d="m 4.8375,297.00001 h 0.0651 a 0.25,0.2500152 0 0 1 0.24961,-0.25012 0.25,0.2500152 0 0 1 0.25012,0.25012 h 0.0599 v -1 H 4.8375 Z"
         id="rect3869-9-4-6-5"
         inkscape:connector-curvature="0" />
      <path
         style="fill:#f7bd13;fill-opacity:1;stroke:none;stroke-width:0.01474101;stroke-miterlimit:4;stroke-dasharray:none;stroke-opacity:1;paint-order:stroke fill markers"
         d="m 3.8375,297.00001 h 0.0651 a 0.25,0.2500152 0 0 1 0.24961,-0.25012 0.25,0.2500152 0 0 1 0.25012,0.25012 h 0.0599 v -1 H 3.8375 Z"
         id="rect3869-9-39-5-1"
         inkscape:connector-curvature="0" />
      <path
         style="fill:#f7bd13;fill-opacity:1;stroke:none;stroke-width:0.01474101;stroke-miterlimit:4;stroke-dasharray:none;stroke-opacity:1;paint-order:stroke fill markers"
         d="m 2.8375,297.00001 h 0.0651 a 0.25,0.2500152 0 0 1 0.24961,-0.25012 0.25,0.2500152 0 0 1 0.25012,0.25012 h 0.0599 v -1 H 2.8375 Z"
         id="rect3869-9-39-6-2-1"
         inkscape:connector-curvature="0" />
    </g>
  </g>
</svg>
